<?xml version="1.0" standalone="no"?>
<!DOCTYPE svg PUBLIC "-//W3C//DTD SVG 20010904//EN"
 "http://www.w3.org/TR/2001/REC-SVG-20010904/DTD/svg10.dtd">
<svg version="1.0" xmlns="http://www.w3.org/2000/svg"
 width="267.000000pt" height="264.000000pt" viewBox="0 0 267.000000 264.000000"
 preserveAspectRatio="xMidYMid meet">

<g transform="translate(0.000000,264.000000) scale(0.100000,-0.100000)"
fill="#000000" stroke="none">
<path d="M363 2004 c3 -3 32 -11 64 -18 l58 -11 7 -85 c13 -176 3 -579 -16
-597 -3 -4 -31 -8 -61 -11 -31 -2 -58 -9 -61 -14 -4 -5 110 -8 293 -6 285 3
301 4 356 26 73 30 149 104 185 179 24 52 27 69 27 168 0 105 -2 114 -33 177
-48 98 -131 161 -244 188 -46 10 -586 14 -575 4z m539 -31 c60 -22 72 -37 16
-18 -25 9 -81 22 -124 30 l-79 14 72 -4 c40 -3 92 -13 115 -22z m-28 -33 c80
-30 146 -96 176 -175 28 -78 25 -214 -7 -286 -50 -112 -156 -182 -273 -181
-36 0 -83 7 -103 16 l-37 15 0 263 c0 318 4 365 34 372 43 10 153 -3 210 -24z"/>
<path d="M1303 2004 c3 -3 32 -11 64 -18 l58 -11 7 -85 c13 -176 3 -579 -16
-597 -3 -4 -31 -8 -61 -11 -31 -2 -58 -9 -61 -14 -4 -5 110 -8 293 -6 285 3
301 4 356 26 73 30 149 104 185 179 24 52 27 69 27 168 0 105 -2 114 -33 177
-48 98 -131 161 -244 188 -46 10 -586 14 -575 4z m539 -31 c60 -22 72 -37 16
-18 -25 9 -81 22 -124 30 l-79 14 72 -4 c40 -3 92 -13 115 -22z m-28 -33 c80
-30 146 -96 176 -175 28 -78 25 -214 -7 -286 -50 -112 -156 -182 -273 -181
-36 0 -83 7 -103 16 l-37 15 0 263 c0 318 4 365 34 372 43 10 153 -3 210 -24z"/>
<path d="M340 1125 l0 -25 940 0 940 0 0 25 0 25 -940 0 -940 0 0 -25z"/>
<path d="M1060 858 c-42 -21 -90 -76 -90 -102 0 -6 12 8 26 32 14 23 30 42 35
42 5 0 0 -13 -12 -29 -32 -44 -37 -121 -10 -166 27 -46 27 -53 -1 -29 -22 18
-22 18 1 -8 14 -16 29 -24 39 -21 11 5 13 3 7 -7 -5 -9 -4 -11 3 -6 7 4 12 2
12 -4 0 -6 5 -8 11 -5 6 5 3 13 -10 22 -70 48 -73 182 -7 267 23 29 102 33
160 8 37 -17 51 -30 66 -64 23 -51 25 -106 6 -152 -15 -37 -45 -64 -33 -30 5
14 2 12 -13 -6 -11 -14 -20 -29 -20 -33 0 -5 -4 -5 -10 -2 -5 3 -10 1 -10 -4
0 -16 8 -14 46 10 70 43 95 137 57 216 -38 81 -165 117 -253 71z"/>
<path d="M553 863 c15 -4 17 -20 17 -153 0 -131 -2 -150 -17 -159 -14 -8 -2
-10 47 -9 36 0 55 3 43 5 -21 4 -23 10 -23 79 l0 74 110 0 c61 0 110 3 110 8
0 4 -49 6 -110 4 l-110 -3 0 75 c0 69 2 75 23 79 12 2 -7 4 -43 4 -36 1 -57
-1 -47 -4z m34 -235 c-1 -46 -3 -11 -3 77 0 88 2 125 3 83 2 -42 2 -114 0
-160z"/>
<path d="M815 861 c11 -5 26 -6 33 -4 9 4 12 -30 12 -151 0 -97 -4 -156 -10
-156 -5 0 -10 6 -10 13 0 8 -3 9 -8 1 -4 -6 -14 -14 -22 -17 -8 -3 14 -5 50
-5 36 0 58 2 49 5 -39 10 -39 306 0 316 9 3 -13 5 -49 5 -42 0 -58 -2 -45 -7z"/>
<path d="M1390 857 c22 -11 25 -20 28 -70 4 -84 -13 -228 -29 -238 -9 -6 0 -8
26 -8 22 1 32 3 22 6 -17 4 -18 13 -11 106 3 56 10 112 15 123 5 14 1 31 -12
53 -10 17 -15 31 -9 31 10 0 171 -282 164 -289 -2 -2 -11 4 -20 15 -12 16 -12
13 1 -15 l17 -34 45 84 c25 46 57 104 71 129 l26 45 8 -30 c6 -25 7 -23 4 11
-2 23 0 47 4 54 7 12 13 -31 26 -197 5 -57 3 -83 -4 -83 -6 0 -13 27 -15 63
l-3 62 -2 -62 c-2 -49 -5 -62 -19 -66 -10 -3 9 -5 42 -6 40 0 55 2 46 8 -18
11 -29 93 -30 218 -1 79 1 92 17 96 9 3 1 5 -18 6 -35 1 -35 0 -104 -129 -38
-72 -72 -130 -76 -130 -8 0 -140 235 -140 250 0 5 -21 10 -47 10 -45 0 -47 -1
-23 -13z"/>
<path d="M1880 863 c8 -3 18 -11 22 -17 5 -7 8 -4 8 7 0 11 -7 17 -22 16 -16
0 -18 -2 -8 -6z"/>
<path d="M1930 710 c0 -92 -4 -160 -9 -160 -5 0 -11 8 -13 18 -3 14 -5 13 -10
-5 -6 -23 -5 -23 93 -23 96 0 99 1 98 23 -1 16 -2 18 -6 5 -4 -14 -15 -18 -59
-18 -64 0 -68 6 -69 95 l0 60 52 3 c43 2 52 0 56 -15 3 -10 5 0 5 22 0 22 -2
32 -5 23 -3 -14 -15 -18 -54 -18 -59 0 -64 8 -54 85 l6 55 59 0 c53 0 59 -2
63 -22 4 -20 4 -19 6 5 l1 27 -80 0 -80 0 0 -160z"/>
<path d="M1283 710 c0 -30 2 -43 4 -27 2 15 2 39 0 55 -2 15 -4 2 -4 -28z"/>
<path d="M962 710 c0 -19 2 -27 5 -17 2 9 2 25 0 35 -3 9 -5 1 -5 -18z"/>
<path d="M1107 548 c2 -5 22 -8 43 -8 21 0 41 3 43 8 3 4 -17 7 -43 7 -26 0
-46 -3 -43 -7z"/>
</g>
</svg>
